<svg id="visual" viewBox="0 0 900 600" width="900" height="600" xmlns="http://www.w3.org/2000/svg" xmlns:xlink="http://www.w3.org/1999/xlink" version="1.1"><g stroke-width="1" stroke-linejoin="bevel"><path d="M481 279L499 223L412 215Z" fill="#5b5593" stroke="#5b5593"></path><path d="M412 215L370 325L481 279Z" fill="#6b5498" stroke="#6b5498"></path><path d="M436 80L332 178L412 215Z" fill="#dc3881" stroke="#dc3881"></path><path d="M412 215L332 178L370 325Z" fill="#e93476" stroke="#e93476"></path><path d="M370 325L474 374L481 279Z" fill="#8d509c" stroke="#8d509c"></path><path d="M615 271L590 214L499 223Z" fill="#6b5498" stroke="#6b5498"></path><path d="M615 271L499 223L481 279Z" fill="#e93476" stroke="#e93476"></path><path d="M499 223L487 98L412 215Z" fill="#8d509c" stroke="#8d509c"></path><path d="M590 214L487 98L499 223Z" fill="#9e4c9a" stroke="#9e4c9a"></path><path d="M487 98L436 80L412 215Z" fill="#bf4392" stroke="#bf4392"></path><path d="M474 374L615 271L481 279Z" fill="#dc3881" stroke="#dc3881"></path><path d="M332 178L294 318L370 325Z" fill="#af4897" stroke="#af4897"></path><path d="M370 325L362 430L474 374Z" fill="#7b539b" stroke="#7b539b"></path><path d="M282 383L362 430L370 325Z" fill="#e93476" stroke="#e93476"></path><path d="M520 527L632 372L474 374Z" fill="#dc3881" stroke="#dc3881"></path><path d="M474 374L632 372L615 271Z" fill="#8d509c" stroke="#8d509c"></path><path d="M294 318L282 383L370 325Z" fill="#f3336a" stroke="#f3336a"></path><path d="M712 225L590 214L615 271Z" fill="#bf4392" stroke="#bf4392"></path><path d="M712 225L636 102L590 214Z" fill="#7b539b" stroke="#7b539b"></path><path d="M590 214L636 102L487 98Z" fill="#f3336a" stroke="#f3336a"></path><path d="M487 98L468 0L436 80Z" fill="#ce3d8a" stroke="#ce3d8a"></path><path d="M613 0L468 0L487 98Z" fill="#bf4392" stroke="#bf4392"></path><path d="M436 80L264 74L332 178Z" fill="#7b539b" stroke="#7b539b"></path><path d="M632 372L690 317L615 271Z" fill="#bf4392" stroke="#bf4392"></path><path d="M468 0L379 0L436 80Z" fill="#5b5593" stroke="#5b5593"></path><path d="M332 178L202 160L294 318Z" fill="#9e4c9a" stroke="#9e4c9a"></path><path d="M379 0L264 74L436 80Z" fill="#9e4c9a" stroke="#9e4c9a"></path><path d="M294 318L181 360L282 383Z" fill="#8d509c" stroke="#8d509c"></path><path d="M690 317L712 225L615 271Z" fill="#5b5593" stroke="#5b5593"></path><path d="M264 74L202 160L332 178Z" fill="#7b539b" stroke="#7b539b"></path><path d="M310 483L432 503L362 430Z" fill="#8d509c" stroke="#8d509c"></path><path d="M362 430L432 503L474 374Z" fill="#dc3881" stroke="#dc3881"></path><path d="M202 160L191 301L294 318Z" fill="#8d509c" stroke="#8d509c"></path><path d="M220 492L310 483L282 383Z" fill="#6b5498" stroke="#6b5498"></path><path d="M282 383L310 483L362 430Z" fill="#e93476" stroke="#e93476"></path><path d="M725 0L613 0L636 102Z" fill="#8d509c" stroke="#8d509c"></path><path d="M636 102L613 0L487 98Z" fill="#5b5593" stroke="#5b5593"></path><path d="M379 0L286 0L264 74Z" fill="#af4897" stroke="#af4897"></path><path d="M264 74L195 90L202 160Z" fill="#f3336a" stroke="#f3336a"></path><path d="M379 600L520 527L432 503Z" fill="#7b539b" stroke="#7b539b"></path><path d="M432 503L520 527L474 374Z" fill="#af4897" stroke="#af4897"></path><path d="M632 372L720 413L690 317Z" fill="#af4897" stroke="#af4897"></path><path d="M107 377L181 360L191 301Z" fill="#e93476" stroke="#e93476"></path><path d="M191 301L181 360L294 318Z" fill="#5b5593" stroke="#5b5593"></path><path d="M236 0L195 90L264 74Z" fill="#e93476" stroke="#e93476"></path><path d="M202 160L103 225L191 301Z" fill="#5b5593" stroke="#5b5593"></path><path d="M715 487L720 413L632 372Z" fill="#8d509c" stroke="#8d509c"></path><path d="M690 317L780 263L712 225Z" fill="#8d509c" stroke="#8d509c"></path><path d="M286 0L236 0L264 74Z" fill="#bf4392" stroke="#bf4392"></path><path d="M712 225L732 71L636 102Z" fill="#f3336a" stroke="#f3336a"></path><path d="M795 205L732 71L712 225Z" fill="#f3336a" stroke="#f3336a"></path><path d="M720 413L780 263L690 317Z" fill="#9e4c9a" stroke="#9e4c9a"></path><path d="M780 263L795 205L712 225Z" fill="#e93476" stroke="#e93476"></path><path d="M520 527L628 535L632 372Z" fill="#e93476" stroke="#e93476"></path><path d="M181 360L220 492L282 383Z" fill="#af4897" stroke="#af4897"></path><path d="M310 483L379 600L432 503Z" fill="#8d509c" stroke="#8d509c"></path><path d="M95 65L202 160L195 90Z" fill="#af4897" stroke="#af4897"></path><path d="M95 65L103 225L202 160Z" fill="#bf4392" stroke="#bf4392"></path><path d="M181 360L107 377L220 492Z" fill="#f3336a" stroke="#f3336a"></path><path d="M103 225L103 264L191 301Z" fill="#dc3881" stroke="#dc3881"></path><path d="M628 535L715 487L632 372Z" fill="#ce3d8a" stroke="#ce3d8a"></path><path d="M720 413L830 430L780 263Z" fill="#e93476" stroke="#e93476"></path><path d="M762 0L725 0L732 71Z" fill="#6b5498" stroke="#6b5498"></path><path d="M732 71L725 0L636 102Z" fill="#6b5498" stroke="#6b5498"></path><path d="M300 600L379 600L310 483Z" fill="#6b5498" stroke="#6b5498"></path><path d="M520 527L590 600L628 535Z" fill="#ce3d8a" stroke="#ce3d8a"></path><path d="M379 600L538 600L520 527Z" fill="#ce3d8a" stroke="#ce3d8a"></path><path d="M628 535L738 600L715 487Z" fill="#9e4c9a" stroke="#9e4c9a"></path><path d="M103 264L107 377L191 301Z" fill="#e93476" stroke="#e93476"></path><path d="M795 205L791 76L732 71Z" fill="#f3336a" stroke="#f3336a"></path><path d="M538 600L590 600L520 527Z" fill="#af4897" stroke="#af4897"></path><path d="M791 76L762 0L732 71Z" fill="#6b5498" stroke="#6b5498"></path><path d="M220 492L300 600L310 483Z" fill="#6b5498" stroke="#6b5498"></path><path d="M226 600L300 600L220 492Z" fill="#7b539b" stroke="#7b539b"></path><path d="M114 0L95 65L195 90Z" fill="#ce3d8a" stroke="#ce3d8a"></path><path d="M103 225L0 282L103 264Z" fill="#ce3d8a" stroke="#ce3d8a"></path><path d="M103 264L0 282L107 377Z" fill="#bf4392" stroke="#bf4392"></path><path d="M236 0L114 0L195 90Z" fill="#5b5593" stroke="#5b5593"></path><path d="M835 484L830 430L715 487Z" fill="#6b5498" stroke="#6b5498"></path><path d="M715 487L830 430L720 413Z" fill="#8d509c" stroke="#8d509c"></path><path d="M780 263L900 277L795 205Z" fill="#f3336a" stroke="#f3336a"></path><path d="M795 205L900 194L791 76Z" fill="#e93476" stroke="#e93476"></path><path d="M118 600L226 600L220 492Z" fill="#af4897" stroke="#af4897"></path><path d="M900 374L900 277L780 263Z" fill="#8d509c" stroke="#8d509c"></path><path d="M791 76L900 0L762 0Z" fill="#5b5593" stroke="#5b5593"></path><path d="M900 277L900 194L795 205Z" fill="#9e4c9a" stroke="#9e4c9a"></path><path d="M795 600L835 484L715 487Z" fill="#ce3d8a" stroke="#ce3d8a"></path><path d="M830 430L900 374L780 263Z" fill="#7b539b" stroke="#7b539b"></path><path d="M0 177L0 282L103 225Z" fill="#6b5498" stroke="#6b5498"></path><path d="M107 377L68 485L220 492Z" fill="#f3336a" stroke="#f3336a"></path><path d="M0 177L103 225L95 65Z" fill="#7b539b" stroke="#7b539b"></path><path d="M0 366L68 485L107 377Z" fill="#e93476" stroke="#e93476"></path><path d="M0 106L0 177L95 65Z" fill="#af4897" stroke="#af4897"></path><path d="M590 600L738 600L628 535Z" fill="#7b539b" stroke="#7b539b"></path><path d="M900 482L900 374L830 430Z" fill="#7b539b" stroke="#7b539b"></path><path d="M0 282L0 366L107 377Z" fill="#f3336a" stroke="#f3336a"></path><path d="M0 0L0 106L95 65Z" fill="#e93476" stroke="#e93476"></path><path d="M900 194L900 66L791 76Z" fill="#8d509c" stroke="#8d509c"></path><path d="M68 485L118 600L220 492Z" fill="#5b5593" stroke="#5b5593"></path><path d="M0 537L118 600L68 485Z" fill="#e93476" stroke="#e93476"></path><path d="M738 600L795 600L715 487Z" fill="#f3336a" stroke="#f3336a"></path><path d="M835 484L900 482L830 430Z" fill="#ce3d8a" stroke="#ce3d8a"></path><path d="M900 66L900 0L791 76Z" fill="#5b5593" stroke="#5b5593"></path><path d="M900 600L900 482L835 484Z" fill="#f3336a" stroke="#f3336a"></path><path d="M114 0L0 0L95 65Z" fill="#dc3881" stroke="#dc3881"></path><path d="M0 366L0 537L68 485Z" fill="#9e4c9a" stroke="#9e4c9a"></path><path d="M795 600L900 600L835 484Z" fill="#7b539b" stroke="#7b539b"></path><path d="M0 537L0 600L118 600Z" fill="#e93476" stroke="#e93476"></path></g></svg>