<svg id="visual" viewBox="0 0 900 600" width="900" height="600" xmlns="http://www.w3.org/2000/svg" xmlns:xlink="http://www.w3.org/1999/xlink" version="1.1"><path d="M0 43L82 43L82 91L164 91L164 121L245 121L245 127L327 127L327 133L409 133L409 109L491 109L491 55L573 55L573 103L655 103L655 109L736 109L736 97L818 97L818 43L900 43L900 67L900 0L900 0L818 0L818 0L736 0L736 0L655 0L655 0L573 0L573 0L491 0L491 0L409 0L409 0L327 0L327 0L245 0L245 0L164 0L164 0L82 0L82 0L0 0Z" fill="#5b5593"></path><path d="M0 271L82 271L82 325L164 325L164 325L245 325L245 247L327 247L327 343L409 343L409 247L491 247L491 307L573 307L573 259L655 259L655 259L736 259L736 319L818 319L818 283L900 283L900 217L900 65L900 41L818 41L818 95L736 95L736 107L655 107L655 101L573 101L573 53L491 53L491 107L409 107L409 131L327 131L327 125L245 125L245 119L164 119L164 89L82 89L82 41L0 41Z" fill="#445588"></path><path d="M0 463L82 463L82 403L164 403L164 427L245 427L245 403L327 403L327 457L409 457L409 445L491 445L491 481L573 481L573 421L655 421L655 505L736 505L736 475L818 475L818 421L900 421L900 361L900 215L900 281L818 281L818 317L736 317L736 257L655 257L655 257L573 257L573 305L491 305L491 245L409 245L409 341L327 341L327 245L245 245L245 323L164 323L164 323L82 323L82 269L0 269Z" fill="#355279"></path><path d="M0 541L82 541L82 439L164 439L164 499L245 499L245 475L327 475L327 505L409 505L409 517L491 517L491 523L573 523L573 499L655 499L655 541L736 541L736 553L818 553L818 475L900 475L900 463L900 359L900 419L818 419L818 473L736 473L736 503L655 503L655 419L573 419L573 479L491 479L491 443L409 443L409 455L327 455L327 401L245 401L245 425L164 425L164 401L82 401L82 461L0 461Z" fill="#2e4e69"></path><path d="M0 601L82 601L82 601L164 601L164 601L245 601L245 601L327 601L327 601L409 601L409 601L491 601L491 601L573 601L573 601L655 601L655 601L736 601L736 601L818 601L818 601L900 601L900 601L900 461L900 473L818 473L818 551L736 551L736 539L655 539L655 497L573 497L573 521L491 521L491 515L409 515L409 503L327 503L327 473L245 473L245 497L164 497L164 437L82 437L82 539L0 539Z" fill="#2f4858"></path></svg>