<svg id="visual" viewBox="0 0 900 600" width="900" height="600" xmlns="http://www.w3.org/2000/svg" xmlns:xlink="http://www.w3.org/1999/xlink" version="1.1"><rect x="0" y="0" width="900" height="600" fill="#F3336A"></rect><path d="M0 357L129 363L257 362L386 370L514 435L643 349L771 361L900 442L900 601L771 601L643 601L514 601L386 601L257 601L129 601L0 601Z" fill="#f3336a"></path><path d="M0 424L129 401L257 408L386 410L514 398L643 438L771 428L900 414L900 601L771 601L643 601L514 601L386 601L257 601L129 601L0 601Z" fill="#d53b86"></path><path d="M0 481L129 489L257 496L386 505L514 488L643 463L771 446L900 487L900 601L771 601L643 601L514 601L386 601L257 601L129 601L0 601Z" fill="#af4897"></path><path d="M0 506L129 538L257 489L386 536L514 537L643 532L771 519L900 487L900 601L771 601L643 601L514 601L386 601L257 601L129 601L0 601Z" fill="#84519b"></path><path d="M0 562L129 558L257 541L386 537L514 543L643 562L771 567L900 569L900 601L771 601L643 601L514 601L386 601L257 601L129 601L0 601Z" fill="#5b5593"></path></svg>