<svg id="visual" viewBox="0 0 900 600" width="900" height="600" xmlns="http://www.w3.org/2000/svg" xmlns:xlink="http://www.w3.org/1999/xlink" version="1.1"><rect x="0" y="0" width="900" height="600" fill="#F3336A"></rect><defs><linearGradient id="grad1_0" x1="33.3%" y1="0%" x2="100%" y2="100%"><stop offset="20%" stop-color="#5b5593" stop-opacity="1"></stop><stop offset="80%" stop-color="#5b5593" stop-opacity="1"></stop></linearGradient></defs><defs><linearGradient id="grad1_1" x1="33.3%" y1="0%" x2="100%" y2="100%"><stop offset="20%" stop-color="#5b5593" stop-opacity="1"></stop><stop offset="80%" stop-color="#f3336a" stop-opacity="1"></stop></linearGradient></defs><defs><linearGradient id="grad2_0" x1="0%" y1="0%" x2="66.7%" y2="100%"><stop offset="20%" stop-color="#5b5593" stop-opacity="1"></stop><stop offset="80%" stop-color="#5b5593" stop-opacity="1"></stop></linearGradient></defs><defs><linearGradient id="grad2_1" x1="0%" y1="0%" x2="66.7%" y2="100%"><stop offset="20%" stop-color="#f3336a" stop-opacity="1"></stop><stop offset="80%" stop-color="#5b5593" stop-opacity="1"></stop></linearGradient></defs><g transform="translate(900, 0)"><path d="M0 351.5C-33.3 318.6 -66.7 285.7 -113.7 274.4C-160.6 263.1 -221.2 273.3 -248.6 248.6C-276 223.8 -270.2 164 -281.8 116.7C-293.4 69.4 -322.5 34.7 -351.5 0L0 0Z" fill="#af4897"></path><path d="M0 175.8C-16.7 159.3 -33.3 142.9 -56.8 137.2C-80.3 131.5 -110.6 136.7 -124.3 124.3C-138 111.9 -135.1 82 -140.9 58.4C-146.7 34.7 -161.2 17.4 -175.8 0L0 0Z" fill="#5b5593"></path></g><g transform="translate(0, 600)"><path d="M0 -351.5C46.2 -340.7 92.3 -329.8 127.1 -306.7C161.8 -283.6 185.1 -248.3 219.9 -219.9C254.7 -191.5 300.9 -170 324.8 -134.5C348.6 -99 350.1 -49.5 351.5 0L0 0Z" fill="#af4897"></path><path d="M0 -175.8C23.1 -170.3 46.2 -164.9 63.5 -153.4C80.9 -141.8 92.6 -124.2 110 -110C127.3 -95.8 150.5 -85 162.4 -67.3C174.3 -49.5 175 -24.8 175.8 0L0 0Z" fill="#5b5593"></path></g></svg>