<svg width="1920" height="100" xmlns="http://www.w3.org/2000/svg">

 <g>
  <title>Layer 1</title>
  <path d="m120,-23.125c1.25,0 2.59515,0.47836 3.75,0c1.6332,-0.67649 3.75,-2.5 5,-2.5c1.25,0 1.34515,-0.77164 2.5,-1.25c1.6332,-0.67649 3.52969,-3.10782 6.25,-3.75c1.21656,-0.28719 1.25,-1.25 1.25,-2.5c0,-1.25 1.25,-1.25 2.5,-1.25c2.5,0 4.6168,-0.57351 6.25,-1.25c1.15485,-0.47835 3.75,0 6.25,0c2.5,0 3.85032,0.86157 7.5,0c2.72031,-0.64218 8.76216,-2.25366 11.25,-2.5c6.34276,-0.62806 9.84819,-1.86682 13.75,-2.5c2.46771,-0.40046 11.25,-1.25 16.25,-1.25c5,0 11.41719,0.18596 17.5,-1.25c2.72031,-0.64218 8.75,-1.25 12.5,-1.25c7.5,0 9.92245,-0.62286 17.5,-1.25c3.73723,-0.3093 11.2951,-0.77723 13.75,-1.25c6.61,-1.27297 9.90724,-3.12194 16.25,-3.75c3.73175,-0.36952 11.26825,-0.88048 15,-1.25c6.34274,-0.62806 16.17957,-2.73543 20,-3.75c6.16025,-1.63594 16.25,-2.5 23.75,-2.5c3.75,0 11.26874,-2.19454 13.75,-2.5c5.11526,-0.62972 7.5,-1.25 10,-1.25l2.5,0l1.25,0" id="svg_2" stroke="null" fill="none"/>
  <g stroke="null">
   <path stroke="null" d="m-2.49997,79.8707l64.25,-9.51169c64.25,-9.51169 192.74999,-28.53506 321.24999,-44.40768c128.5,-15.63483 256.99999,-28.7134 385.49999,-19.02337c128.5,9.33334 256.99999,41.43528 385.49999,50.76862c128.5,9.69003 256.99999,-3.38854 385.49999,0c128.5,3.15075 256.99999,22.17412 321.24999,31.6858l64.25,9.51169l0,0l-64.25,0c-64.25,0 -192.74999,0 -321.24999,0c-128.5,0 -256.99999,0 -385.49999,0c-128.5,0 -256.99999,0 -385.49999,0c-128.5,0 -256.99999,0 -385.49999,0c-128.5,0 -256.99999,0 -321.24999,0l-64.25,0l0,-19.02337z" fill="#F3336A"/>
  </g>
 </g>
</svg>