<?xml version="1.0" encoding="UTF-8" standalone="no" ?>
<!DOCTYPE svg PUBLIC "-//W3C//DTD SVG 1.1//EN" "http://www.w3.org/Graphics/SVG/1.1/DTD/svg11.dtd">
<svg xmlns="http://www.w3.org/2000/svg" xmlns:xlink="http://www.w3.org/1999/xlink" version="1.1" width="1080" height="100" viewBox="0 0 1080 100" xml:space="preserve">
<desc>Created with Fabric.js 5.2.4</desc>
<defs>
</defs>
<rect x="0" y="0" width="100%" height="100%" fill="transparent"></rect>
<g transform="matrix(1 0 0 1 540 50)" id="b58b15fc-e029-4270-881c-b840b14da509"  >
<rect style="stroke: none; stroke-width: 1; stroke-dasharray: none; stroke-linecap: butt; stroke-dashoffset: 0; stroke-linejoin: miter; stroke-miterlimit: 4; fill: rgb(255,255,255); fill-rule: nonzero; opacity: 1; visibility: hidden;" vector-effect="non-scaling-stroke"  x="-540" y="-50" rx="0" ry="0" width="1080" height="100" />
</g>
<g transform="matrix(Infinity NaN NaN Infinity 0 0)" id="c0787631-37cb-428e-9036-8da33394e807"  >
</g>
<g transform="matrix(0.78 0 0 0.78 526.5 50)" id="4bf51e60-a7ad-4b3e-846e-1d57d220b34f"  >
<path style="stroke: rgb(0,0,0); stroke-width: 0; stroke-dasharray: none; stroke-linecap: butt; stroke-dashoffset: 0; stroke-linejoin: miter; stroke-miterlimit: 4; fill: rgb(243,51,106); fill-rule: nonzero; opacity: 1;" vector-effect="non-scaling-stroke"  transform=" translate(-720, -256)" d="M 0 288 L 48 277.3 C 96 267 192 245 288 229.3 C 384 213 480 203 576 218.7 C 672 235 768 277 864 293.3 C 960 309 1056 299 1152 277.3 C 1248 256 1344 224 1392 208 L 1440 192 L 1440 320 L 1392 320 C 1344 320 1248 320 1152 320 C 1056 320 960 320 864 320 C 768 320 672 320 576 320 C 480 320 384 320 288 320 C 192 320 96 320 48 320 L 0 320 Z" stroke-linecap="round" />
</g>
</svg>